<svg xmlns="http://www.w3.org/2000/svg" viewBox="0 0 512 512" role="img" aria-label="Sổ Thông Thái">
  <rect width="512" height="512" rx="112" fill="#111827"/>
  <path d="M150 112h180c39 0 70 31 70 70v218H178c-39 0-70-31-70-70V154c0-23 19-42 42-42Z" fill="#fef3c7"/>
  <path d="M178 112h184c23 0 42 19 42 42v246H220c-39 0-70-31-70-70V140c0-15 13-28 28-28Z" fill="#fffaf0"/>
  <path d="M198 188h158M198 238h128M198 288h152" stroke="#b45309" stroke-width="24" stroke-linecap="round"/>
  <circle cx="356" cy="148" r="48" fill="#1d4ed8"/>
  <path d="M356 121v54M329 148h54" stroke="#fff" stroke-width="18" stroke-linecap="round"/>
</svg>
